<?xml version="1.0" encoding="UTF-8"?>
<svg xmlns="http://www.w3.org/2000/svg" xmlns:xlink="http://www.w3.org/1999/xlink" width="36px" height="36px" viewBox="0 0 36 36" version="1.1">
<g id="surface1">
<path style=" stroke:none;fill-rule:nonzero;fill:rgb(25.882353%,40.392157%,69.803922%);fill-opacity:1;" d="M 17.878906 0 L 18.238281 0 C 28.078125 0 36 7.921875 36 17.878906 L 36 18.238281 C 36 28.078125 28.078125 36 18.121094 36 L 17.761719 36 C 7.921875 36 0 28.078125 0 18.121094 L 0 17.761719 C 0 7.921875 7.921875 0 17.878906 0 Z M 17.878906 0 "/>
<path style=" stroke:none;fill-rule:nonzero;fill:rgb(100%,100%,100%);fill-opacity:1;" d="M 26.398438 8.640625 L 9.601562 8.640625 C 9 8.640625 8.640625 9 8.640625 9.601562 L 8.640625 26.398438 C 8.640625 26.878906 9 27.480469 9.71875 27.480469 L 18.71875 27.480469 L 18.71875 20.160156 L 16.320312 20.160156 L 16.320312 17.28125 L 18.71875 17.28125 L 18.71875 15.238281 C 18.71875 12.839844 20.160156 11.519531 22.320312 11.519531 C 23.039062 11.519531 23.761719 11.519531 24.480469 11.640625 L 24.480469 14.160156 L 23.039062 14.160156 C 21.839844 14.160156 21.601562 14.640625 21.601562 15.480469 L 21.601562 17.28125 L 24.359375 17.28125 L 24 20.039062 L 21.601562 20.039062 L 21.601562 27.359375 L 26.398438 27.359375 C 26.878906 27.359375 27.480469 27 27.480469 26.28125 L 27.480469 9.601562 C 27.359375 9 27 8.640625 26.398438 8.640625 Z M 26.398438 8.640625 "/>
</g>
</svg>
