<?xml version="1.0" encoding="UTF-8"?>
<svg xmlns="http://www.w3.org/2000/svg" xmlns:xlink="http://www.w3.org/1999/xlink" width="36px" height="36px" viewBox="0 0 36 36" version="1.1">
<g id="surface1">
<path style=" stroke:none;fill-rule:nonzero;fill:rgb(85.098039%,19.215686%,45.882353%);fill-opacity:1;" d="M 17.878906 0 L 18.238281 0 C 28.078125 0 36 7.921875 36 17.878906 L 36 18.238281 C 36 28.078125 28.078125 36 18.121094 36 L 17.761719 36 C 7.921875 36 0 28.078125 0 18.121094 L 0 17.761719 C 0 7.921875 7.921875 0 17.878906 0 Z M 17.878906 0 "/>
<path style=" stroke:none;fill-rule:nonzero;fill:rgb(100%,100%,100%);fill-opacity:1;" d="M 18 9.238281 C 20.878906 9.238281 21.121094 9.238281 22.320312 9.359375 C 23.398438 9.359375 23.878906 9.601562 24.238281 9.71875 C 24.71875 9.960938 25.078125 10.199219 25.441406 10.558594 C 25.800781 10.921875 26.039062 11.28125 26.28125 11.761719 C 26.398438 12.121094 26.640625 12.71875 26.640625 13.679688 C 26.640625 14.761719 26.761719 15.121094 26.761719 18 C 26.761719 20.878906 26.761719 21.121094 26.640625 22.320312 C 26.640625 23.398438 26.398438 23.878906 26.28125 24.238281 C 26.039062 24.71875 25.800781 25.078125 25.441406 25.441406 C 25.078125 25.800781 24.71875 26.039062 24.238281 26.28125 C 23.878906 26.398438 23.28125 26.640625 22.320312 26.640625 C 21.238281 26.640625 20.878906 26.761719 18 26.761719 C 15.121094 26.761719 14.878906 26.761719 13.679688 26.640625 C 12.601562 26.640625 12.121094 26.398438 11.761719 26.28125 C 11.28125 26.039062 10.921875 25.800781 10.558594 25.441406 C 10.199219 25.078125 9.960938 24.71875 9.71875 24.238281 C 9.601562 23.878906 9.359375 23.28125 9.359375 22.320312 C 9.359375 21.238281 9.238281 20.878906 9.238281 18 C 9.238281 15.121094 9.238281 14.878906 9.359375 13.679688 C 9.359375 12.601562 9.601562 12.121094 9.71875 11.761719 C 9.960938 11.28125 10.199219 10.921875 10.558594 10.558594 C 10.800781 10.078125 11.160156 9.839844 11.640625 9.601562 C 12 9.480469 12.601562 9.238281 13.558594 9.238281 C 14.761719 9.238281 15.121094 9.238281 18 9.238281 M 18 7.320312 C 15.121094 7.320312 14.761719 7.320312 13.558594 7.441406 C 12.480469 7.441406 11.640625 7.679688 10.921875 7.921875 C 10.199219 8.160156 9.601562 8.519531 9 9.121094 C 8.398438 9.71875 8.039062 10.320312 7.800781 11.039062 C 7.558594 11.761719 7.320312 12.480469 7.320312 13.679688 C 7.320312 14.761719 7.199219 15.121094 7.199219 18.121094 C 7.199219 21 7.199219 21.359375 7.320312 22.558594 C 7.320312 23.640625 7.558594 24.480469 7.800781 25.199219 C 8.039062 25.921875 8.398438 26.519531 9 27.121094 C 9.601562 27.71875 10.199219 28.078125 10.921875 28.320312 C 11.640625 28.558594 12.359375 28.800781 13.558594 28.800781 C 14.640625 28.800781 15 28.921875 18 28.921875 C 21 28.921875 21.238281 28.921875 22.441406 28.800781 C 23.519531 28.800781 24.359375 28.558594 25.078125 28.320312 C 25.800781 28.078125 26.398438 27.71875 27 27.121094 C 27.601562 26.519531 27.960938 25.921875 28.199219 25.199219 C 28.441406 24.480469 28.679688 23.761719 28.679688 22.558594 C 28.679688 21.480469 28.800781 21.121094 28.800781 18.121094 C 28.800781 15.121094 28.800781 14.878906 28.679688 13.679688 C 28.679688 12.601562 28.441406 11.761719 28.199219 11.039062 C 27.960938 10.320312 27.601562 9.71875 27 9.121094 C 26.398438 8.519531 25.800781 8.160156 25.078125 7.921875 C 24.359375 7.679688 23.640625 7.441406 22.441406 7.441406 C 21.238281 7.320312 20.878906 7.320312 18 7.320312 Z M 18 7.320312 "/>
<path style=" stroke:none;fill-rule:nonzero;fill:rgb(100%,100%,100%);fill-opacity:1;" d="M 18 12.480469 C 15 12.480469 12.480469 14.878906 12.480469 18 C 12.480469 21.121094 14.878906 23.519531 18 23.519531 C 21.121094 23.519531 23.519531 21.121094 23.519531 18 C 23.519531 14.878906 21 12.480469 18 12.480469 Z M 18 21.480469 C 16.078125 21.480469 14.398438 19.921875 14.398438 17.878906 C 14.398438 15.839844 15.960938 14.28125 18 14.28125 C 19.921875 14.28125 21.601562 15.839844 21.601562 17.878906 C 21.601562 19.921875 19.921875 21.480469 18 21.480469 Z M 18 21.480469 "/>
<path style=" stroke:none;fill-rule:nonzero;fill:rgb(100%,100%,100%);fill-opacity:1;" d="M 24.960938 12.238281 C 24.960938 12.96875 24.367188 13.558594 23.640625 13.558594 C 22.910156 13.558594 22.320312 12.96875 22.320312 12.238281 C 22.320312 11.511719 22.910156 10.921875 23.640625 10.921875 C 24.367188 10.921875 24.960938 11.511719 24.960938 12.238281 Z M 24.960938 12.238281 "/>
</g>
</svg>
