<?xml version="1.0" encoding="UTF-8"?>
<svg xmlns="http://www.w3.org/2000/svg" xmlns:xlink="http://www.w3.org/1999/xlink" width="36px" height="36px" viewBox="0 0 36 36" version="1.1">
<g id="surface1">
<path style=" stroke:none;fill-rule:nonzero;fill:rgb(100%,100%,100%);fill-opacity:1;" d="M 25.070312 12.226562 C 25.070312 12.960938 24.472656 13.558594 23.738281 13.558594 C 23.003906 13.558594 22.40625 12.960938 22.40625 12.226562 C 22.40625 11.492188 23.003906 10.894531 23.738281 10.894531 C 24.472656 10.894531 25.070312 11.492188 25.070312 12.226562 Z M 25.070312 12.226562 "/>
<path style="fill-rule:nonzero;fill:rgb(0%,0%,0%);fill-opacity:1;stroke-width:1;stroke-linecap:butt;stroke-linejoin:miter;stroke:rgb(100%,100%,100%);stroke-opacity:1;stroke-miterlimit:10;" d="M 29.239816 14.87 C 29.239816 22.805184 22.805184 29.239816 14.87 29.239816 C 6.934816 29.239816 0.500184 22.805184 0.500184 14.87 C 0.500184 6.934816 6.934816 0.500184 14.87 0.500184 C 22.805184 0.500184 29.239816 6.934816 29.239816 14.87 Z M 29.239816 14.87 " transform="matrix(1.210491,0,0,1.210491,0,0)"/>
<path style=" stroke:none;fill-rule:nonzero;fill:rgb(100%,100%,100%);fill-opacity:1;" d="M 7.289062 7.929688 L 15.601562 19.054688 L 7.238281 28.09375 L 9.128906 28.09375 L 16.449219 20.179688 L 22.371094 28.09375 L 28.773438 28.09375 L 19.984375 16.355469 L 27.769531 7.941406 L 25.878906 7.941406 L 19.136719 15.226562 L 13.691406 7.941406 L 7.289062 7.941406 Z M 10.058594 9.320312 L 13 9.320312 L 26 26.703125 L 23.058594 26.703125 L 10.058594 9.308594 Z M 10.058594 9.320312 "/>
</g>
</svg>
